<?xml version="1.0" encoding="UTF-8" standalone="no"?> <!-- Created with Vectornator for iOS (http://vectornator.io/) --><!DOCTYPE svg PUBLIC "-//W3C//DTD SVG 1.1//EN" "http://www.w3.org/Graphics/SVG/1.1/DTD/svg11.dtd">
<svg style="fill-rule:evenodd;clip-rule:evenodd;stroke-linecap:round;stroke-linejoin:round;" xmlns:vectornator="http://vectornator.io" xmlns:xlink="http://www.w3.org/1999/xlink" xmlns="http://www.w3.org/2000/svg" xml:space="preserve" version="1.1" viewBox="0 0 512 512">
<metadata>
<vectornator:setting key="DynamicGuides" value="1"/>
<vectornator:setting key="Units" value="Points"/>
<vectornator:setting key="GuidesVisible" value="1"/>
<vectornator:setting key="RulersVisible" value="1"/>
<vectornator:setting key="SnapToGuides" value="1"/>
<vectornator:setting key="GridSpacing" value="36"/>
</metadata>
<defs/>
<g id="Untitled" vectornator:layerName="Untitled">
<path d="M127.06+131.233L127.06+472.682C127.06+476.114+128.955+479.265+131.986+480.874L190.616+512L190.616+91.916L131.986+123.042C128.955+124.65+127.06+127.802+127.06+131.233Z" opacity="1" fill="#fd9468"/>
<path d="M384.94+131.233L384.94+472.682C384.94+476.114+383.045+479.265+380.014+480.874L321.384+512L321.384+91.916L380.014+123.042C383.045+124.65+384.94+127.802+384.94+131.233Z" opacity="1" fill="#fd9468"/>
<path d="M384.939+131.232L384.939+472.686C384.939+476.114+383.046+479.266+380.017+480.873L361.065+490.932C362.917+489.203+364.012+486.757+364.012+484.158L364.012+119.76C364.012+117.161+362.917+114.715+361.065+112.986L380.017+123.045C383.046+124.652+384.939+127.804+384.939+131.232Z" opacity="1" fill="#fe7d43"/>
<path d="M190.616+91.916L321.385+91.916L321.385+512L190.616+512L190.616+91.916Z" opacity="1" fill="#ffc5ad"/>
<path d="M300.459+91.916L321.384+91.916L321.384+512L300.459+512L300.459+91.916Z" opacity="1" fill="#fead8a"/>
<path d="M127.06+171.081L190.616+145.201L321.384+145.201L384.94+171.081L384.94+131.234C384.94+127.802+383.045+124.651+380.014+123.042L321.384+91.916L190.616+91.916L131.986+123.042C128.955+124.651+127.06+127.802+127.06+131.234L127.06+171.081Z" opacity="1" fill="#7a6d79"/>
<path d="M384.939+131.232L384.939+171.081L364.012+162.557L364.012+119.76C364.012+117.161+362.917+114.715+361.065+112.986L380.017+123.045C383.046+124.652+384.939+127.804+384.939+131.232Z" opacity="1" fill="#685e68"/>
<path d="M127.06+432.835L190.616+458.715L321.384+458.715L384.94+432.835L384.94+472.682C384.94+476.114+383.045+479.265+380.014+480.874L321.384+512L190.616+512L131.986+480.874C128.955+479.265+127.06+476.114+127.06+472.682L127.06+432.835Z" opacity="1" fill="#7a6d79"/>
<path d="M384.939+432.837L384.939+472.685C384.939+476.113+383.046+479.265+380.017+480.872L361.065+490.931C362.917+489.202+364.012+486.756+364.012+484.157L364.012+441.361L384.939+432.837Z" opacity="1" fill="#685e68"/>
<g opacity="1">
<path d="M243.335+191.649C230.972+191.649+220.913+201.708+220.913+214.071C220.913+224.676+229.541+233.305+240.146+233.305C250.751+233.305+259.38+224.676+259.38+214.071L259.38+206.649L264.068+206.649C270.695+206.649+276.086+212.041+276.086+218.668L276.086+229.571C276.086+233.714+279.443+237.071+283.586+237.071C287.729+237.071+291.086+233.714+291.086+229.571L291.086+218.668C291.086+203.77+278.966+191.649+264.068+191.649L259.38+191.649L259.38+181.097L273.827+181.097C277.97+181.097+281.327+177.74+281.327+173.597C281.327+169.454+277.97+166.097+273.827+166.097L230.802+166.097C226.659+166.097+223.302+169.454+223.302+173.597C223.302+177.74+226.659+181.097+230.802+181.097L244.38+181.097L244.38+191.649L243.335+191.649ZM244.381+214.071C244.381+216.406+242.482+218.305+240.147+218.305C237.813+218.305+235.914+216.406+235.914+214.071C235.914+209.978+239.243+206.649+243.336+206.649L244.382+206.649L244.382+214.071L244.381+214.071Z" opacity="1" fill="#fd9468"/>
<path d="M292.493+279.218C291.44+277.911+290.232+276.77+288.909+275.798C290.621+274.101+291.777+273.099+291.816+273.066C294.961+270.377+295.334+265.648+292.647+262.499C289.959+259.349+285.226+258.97+282.074+261.66C281.719+261.963+277.095+265.945+272.033+272.035L258.802+272.035L259.484+269.15C261.117+262.669+259.705+255.929+255.603+250.648C251.486+245.346+245.275+242.305+238.563+242.305L222.572+242.305C218.429+242.305+215.072+245.662+215.072+249.805C215.072+253.948+218.429+257.305+222.572+257.305L238.563+257.305C240.608+257.305+242.501+258.232+243.755+259.847C245.01+261.463+245.439+263.527+244.932+265.508C244.921+265.552+244.91+265.597+244.9+265.642L243.39+272.035L235.693+272.035C229.401+272.035+223.63+275.206+220.255+280.517C216.88+285.828+216.462+292.399+219.136+298.095C222.2+304.624+228.545+308.617+235.622+308.616C243.906+308.615+251.429+302.964+253.412+294.852C253.423+294.808+253.434+294.763+253.444+294.718L255.259+287.033L262.244+287.033C261.495+288.634+260.824+290.271+260.268+291.938C258.958+295.867+261.082+300.115+265.012+301.424C265.798+301.687+266.598+301.811+267.384+301.811C270.524+301.811+273.45+299.824+274.498+296.68C275.568+293.469+277.278+290.315+279.212+287.406C279.828+287.672+280.365+288.074+280.811+288.627C281.725+289.762+282.125+291.365+281.832+292.714C280.95+296.761+283.516+300.757+287.563+301.639C291.611+302.524+295.606+299.954+296.488+295.908C297.748+290.127+296.255+283.888+292.493+279.218ZM238.866+291.188C238.354+293.096+236.854+293.517+236.002+293.598C235.138+293.676+233.569+293.542+232.714+291.721C232.046+290.297+232.554+289.129+232.915+288.559C233.277+287.99+234.119+287.034+235.692+287.034L239.846+287.034L238.866+291.188Z" opacity="1" fill="#fd9468"/>
<path d="M273.121+310.674C272.803+310.783+265.204+313.41+256.276+318.073C243.781+324.599+234.982+331.764+230.123+339.371C228.582+341.784+228.549+344.863+230.037+347.309C230.799+348.561+238.081+359.761+258.844+367.398C259.698+367.712+260.573+367.861+261.432+367.861C264.487+367.861+267.356+365.981+268.472+362.948C269.902+359.06+267.909+354.75+264.022+353.32C255.062+350.025+249.45+346.015+246.261+343.148C255.113+334.16+271.571+327.077+277.997+324.86C281.911+323.513+283.995+319.249+282.65+315.333C281.306+311.415+277.039+309.332+273.121+310.674Z" opacity="1" fill="#fd9468"/>
<path d="M280.989+407.173C276.846+407.173+273.489+410.53+273.489+414.673C273.489+419.164+269.835+422.819+265.343+422.819L246.655+422.819C242.164+422.819+238.509+419.165+238.509+414.673L238.509+380.051C238.509+375.908+235.152+372.551+231.009+372.551C226.866+372.551+223.509+375.908+223.509+380.051L223.509+414.673C223.509+427.436+233.892+437.819+246.655+437.819L265.343+437.819C278.106+437.819+288.489+427.436+288.489+414.673C288.489+410.53+285.132+407.173+280.989+407.173Z" opacity="1" fill="#fd9468"/>
<path d="M250.157+383.052C246.592+385.16+245.411+389.761+247.52+393.325C249.196+396.157+250.22+399.389+250.485+402.671C250.8+406.595+254.083+409.569+257.953+409.569C258.154+409.569+258.358+409.561+258.562+409.545C262.691+409.213+265.769+405.597+265.436+401.468C264.991+395.928+263.259+390.471+260.43+385.689C258.322+382.124+253.724+380.942+250.157+383.052Z" opacity="1" fill="#fd9468"/>
<path d="M269.769+377.798C266.515+380.361+265.957+385.077+268.522+388.33C270.12+390.358+271.114+392.891+271.321+395.462C271.636+399.387+274.919+402.361+278.789+402.361C278.99+402.361+279.193+402.353+279.397+402.337C283.526+402.006+286.604+398.39+286.272+394.261C285.832+388.774+283.71+383.369+280.301+379.045C277.737+375.791+273.021+375.233+269.769+377.798Z" opacity="1" fill="#fd9468"/>
</g>
</g>
</svg>
