<svg id="Capa_1" enable-background="new 0 0 512 512" height="512" viewBox="0 0 512 512" width="512" xmlns="http://www.w3.org/2000/svg"><g><g><path d="m274.766 105.207h-37.531v-97.343c0-4.343 3.52-7.863 7.863-7.863h21.805c4.343 0 7.863 3.52 7.863 7.863z" fill="#e8ad8c"/><path d="m274.768 7.859v97.348h-19.556v-97.348c0-4.339-3.52-7.859-7.869-7.859h19.556c4.348 0 7.869 3.52 7.869 7.859z" fill="#e19974"/></g><path d="m127.06 131.233v341.449c0 3.432 1.895 6.583 4.926 8.192l58.63 31.126v-420.084l-58.63 31.126c-3.031 1.608-4.926 4.76-4.926 8.191z" fill="#fd9468"/><path d="m384.94 131.233v341.449c0 3.432-1.895 6.583-4.926 8.192l-58.63 31.126v-420.084l58.63 31.126c3.031 1.608 4.926 4.76 4.926 8.191z" fill="#fd9468"/><path d="m384.939 131.232v341.454c0 3.428-1.893 6.58-4.922 8.187l-18.952 10.059c1.852-1.729 2.947-4.175 2.947-6.774v-364.398c0-2.599-1.095-5.045-2.947-6.774l18.952 10.059c3.029 1.607 4.922 4.759 4.922 8.187z" fill="#fe7d43"/><path d="m190.616 91.916h130.769v420.084h-130.769z" fill="#ffc5ad"/><path d="m300.459 91.916h20.925v420.084h-20.925z" fill="#fead8a"/><path d="m127.06 171.081 63.556-25.88h130.768l63.556 25.88v-39.847c0-3.432-1.895-6.583-4.926-8.192l-58.63-31.126h-130.768l-58.63 31.126c-3.031 1.609-4.926 4.76-4.926 8.192z" fill="#7a6d79"/><path d="m384.939 131.232v39.849l-20.927-8.524v-42.797c0-2.599-1.095-5.045-2.947-6.774l18.952 10.059c3.029 1.607 4.922 4.759 4.922 8.187z" fill="#685e68"/><path d="m127.06 432.835 63.556 25.88h130.768l63.556-25.88v39.847c0 3.432-1.895 6.583-4.926 8.192l-58.63 31.126h-130.768l-58.63-31.126c-3.031-1.609-4.926-4.76-4.926-8.192z" fill="#7a6d79"/><path d="m384.939 432.837v39.848c0 3.428-1.893 6.58-4.922 8.187l-18.952 10.059c1.852-1.729 2.947-4.175 2.947-6.774v-42.796z" fill="#685e68"/><g fill="#fd9468"><path d="m243.335 191.649c-12.363 0-22.422 10.059-22.422 22.422 0 10.605 8.628 19.234 19.233 19.234s19.234-8.629 19.234-19.234v-7.422h4.688c6.627 0 12.018 5.392 12.018 12.019v10.903c0 4.143 3.357 7.5 7.5 7.5s7.5-3.357 7.5-7.5v-10.903c0-14.898-12.12-27.019-27.018-27.019h-4.688v-10.552h14.447c4.143 0 7.5-3.357 7.5-7.5s-3.357-7.5-7.5-7.5h-43.025c-4.143 0-7.5 3.357-7.5 7.5s3.357 7.5 7.5 7.5h13.578v10.552zm1.046 22.422c0 2.335-1.899 4.234-4.234 4.234-2.334 0-4.233-1.899-4.233-4.234 0-4.093 3.329-7.422 7.422-7.422h1.046v7.422z"/><path d="m292.493 279.218c-1.053-1.307-2.261-2.448-3.584-3.42 1.712-1.697 2.868-2.699 2.907-2.732 3.145-2.689 3.518-7.418.831-10.567-2.688-3.15-7.421-3.529-10.573-.839-.355.303-4.979 4.285-10.041 10.375h-13.231l.682-2.885c1.633-6.481.221-13.221-3.881-18.502-4.117-5.302-10.328-8.343-17.04-8.343h-15.991c-4.143 0-7.5 3.357-7.5 7.5s3.357 7.5 7.5 7.5h15.991c2.045 0 3.938.927 5.192 2.542 1.255 1.616 1.684 3.68 1.177 5.661-.011.044-.022.089-.032.134l-1.51 6.393h-7.697c-6.292 0-12.063 3.171-15.438 8.482s-3.793 11.882-1.119 17.578c3.064 6.529 9.409 10.522 16.486 10.521 8.284-.001 15.807-5.652 17.79-13.764.011-.044.022-.089.032-.134l1.815-7.685h6.985c-.749 1.601-1.42 3.238-1.976 4.905-1.31 3.929.814 8.177 4.744 9.486.786.263 1.586.387 2.372.387 3.14 0 6.066-1.987 7.114-5.131 1.07-3.211 2.78-6.365 4.714-9.274.616.266 1.153.668 1.599 1.221.914 1.135 1.314 2.738 1.021 4.087-.882 4.047 1.684 8.043 5.731 8.925 4.048.885 8.043-1.685 8.925-5.731 1.26-5.781-.233-12.02-3.995-16.69zm-53.627 11.97c-.512 1.908-2.012 2.329-2.864 2.41-.864.078-2.433-.056-3.288-1.877-.668-1.424-.16-2.592.201-3.162.362-.569 1.204-1.525 2.777-1.525h4.154z"/><path d="m273.121 310.674c-.318.109-7.917 2.736-16.845 7.399-12.495 6.526-21.294 13.691-26.153 21.298-1.541 2.413-1.574 5.492-.086 7.938.762 1.252 8.044 12.452 28.807 20.089.854.314 1.729.463 2.588.463 3.055 0 5.924-1.88 7.04-4.913 1.43-3.888-.563-8.198-4.45-9.628-8.96-3.295-14.572-7.305-17.761-10.172 8.852-8.988 25.31-16.071 31.736-18.288 3.914-1.347 5.998-5.611 4.653-9.527-1.344-3.918-5.611-6.001-9.529-4.659z"/><path d="m280.989 407.173c-4.143 0-7.5 3.357-7.5 7.5 0 4.491-3.654 8.146-8.146 8.146h-18.688c-4.491 0-8.146-3.654-8.146-8.146v-34.622c0-4.143-3.357-7.5-7.5-7.5s-7.5 3.357-7.5 7.5v34.622c0 12.763 10.383 23.146 23.146 23.146h18.688c12.763 0 23.146-10.383 23.146-23.146 0-4.143-3.357-7.5-7.5-7.5z"/><path d="m250.157 383.052c-3.565 2.108-4.746 6.709-2.637 10.273 1.676 2.832 2.7 6.064 2.965 9.346.315 3.924 3.598 6.898 7.468 6.898.201 0 .405-.008.609-.024 4.129-.332 7.207-3.948 6.874-8.077-.445-5.54-2.177-10.997-5.006-15.779-2.108-3.565-6.706-4.747-10.273-2.637z"/><path d="m269.769 377.798c-3.254 2.563-3.812 7.279-1.247 10.532 1.598 2.028 2.592 4.561 2.799 7.132.315 3.925 3.598 6.899 7.468 6.899.201 0 .404-.008.608-.024 4.129-.331 7.207-3.947 6.875-8.076-.44-5.487-2.562-10.892-5.971-15.216-2.564-3.254-7.28-3.812-10.532-1.247z"/></g></g></svg>